# AST/ASF file generated using VICON BodyLanguage
# -----------------------------------------------
:version 1.10
:name VICON
:units
  mass 1.0
  length 0.45
  angle deg
:documentation
   .ast/.asf automatically generated from VICON data using
   VICON BodyBuilder and BodyLanguage model FoxedUp or BRILLIANT.MOD
:root
   order TX TY TZ RX RY RZ
   axis XYZ
   position 0 0 0  
   orientation 0 0 0 
:bonedata
  begin
     id 1 
     name lhipjoint
     direction 0.606768 -0.715223 0.346827 
     length 2.41543 
     axis 0 0 0  XYZ
  end
  begin
     id 2 
     name lfemur
     direction 0.34202 -0.939693 0  
     length 7.2778  
     axis 0 0 20  XYZ
    dof rx ry rz
    limits (-160.0 20.0)
           (-70.0 70.0)
           (-60.0 70.0)
  end
  begin
     id 3 
     name ltibia
     direction 0.34202 -0.939693 0   
     length 7.61811   
     axis 0 0 20   XYZ
    dof rx
    limits (-10.0 170.0)
  end
  begin
     id 4 
     name lfoot
     direction 0.0823924 -0.226371 0.97055   
     length 2.33618   
     axis -90 7.62852e-016 20   XYZ
    dof rx rz
    limits (-45.0 90.0)
           (-70.0 20.0)
  end
  begin
     id 5 
     name ltoes
     direction 1.53554e-011 -4.21934e-011 1   
     length 1.17015   
     axis -90 7.62852e-016 20   XYZ
    dof rx
    limits (-90.0 20.0)
  end
  begin
     id 6 
     name rhipjoint
     direction -0.6077 -0.714582 0.346516   
     length 2.4176  
     axis 0 0 0  XYZ 
  end
  begin
     id 7 
     name rfemur
     direction -0.34202 -0.939693 0   
     length 7.28127   
     axis 0 0 -20   XYZ
    dof rx ry rz
    limits (-160.0 20.0)
           (-70.0 70.0)
           (-70.0 60.0)
  end
  begin
     id 8 
     name rtibia
     direction -0.34202 -0.939693 0   
     length 7.77648   
     axis 0 0 -20   XYZ
    dof rx
    limits (-10.0 170.0)
 end
 begin
     id 9 
     name rfoot
     direction -0.0809463 -0.222398 0.97159   
     length 2.37533  
     axis -90 -7.62852e-016 -20   XYZ
    dof rx rz
    limits (-45.0 90.0)
           (-20.0 70.0)
  end
  begin
     id 10 
     name rtoes
     direction -1.53568e-011 -4.21714e-011 1   
     length 1.18972   
     axis -90 -7.62852e-016 -20   XYZ
    dof rx
    limits (-90.0 20.0)
  end
  begin
     id 11 
     name lowerback
     direction 0.010968 0.991932 -0.126297   
     length 2.21698   
     axis 0 0 0   XYZ
    dof rx ry rz
    limits (-20.0 45.0)
           (-30.0 30.0)
           (-30.0 30.0)
  end
  begin
     id 12 
     name upperback
     direction 0.0167007 0.997503 -0.0686276   
     length 2.22371   
     axis 0 0 0   XYZ
    dof rx ry rz
    limits (-20.0 45.0)
           (-30.0 30.0)
           (-30.0 30.0)
  end
  begin
     id 13 
     name thorax
     direction 0.0111721 0.999885 -0.0102878   
     length 2.25242   
     axis 0 0 0   XYZ
    dof rx ry rz
    limits (-20.0 45.0)
           (-30.0 30.0)
           (-30.0 30.0)
  end
  begin
     id 14 
     name lowerneck
     direction -0.0120265 0.990428 0.137508   
     length 1.57674   
     axis 0 0 0   XYZ
    dof rx ry rz
    limits (-20.0 45.0)
           (-30.0 30.0)
           (-30.0 30.0)
  end
  begin
     id 15 
     name upperneck
     direction 0.0175669 0.998907 0.0433089   
     length 1.5618   
     axis 0 0 0   XYZ
    dof rx ry rz
    limits (-20.0 45.0)
           (-30.0 30.0)
           (-30.0 30.0)
  end
  begin
     id 16
     name head
     direction 0.00754609 0.99997 0.00185367  
     length 1.60579  
     axis 0 0 0   XYZ
    dof rx ry rz
    limits (-20.0 45.0)
           (-30.0 30.0)
           (-30.0 30.0)
  end
  begin
     id 17 
     name lclavicle
     direction 0.885866 0.429166 -0.176231  
     length 3.44967  
     axis 0 0 0   XYZ
    dof ry rz
    limits (-20.0 10.0)
           (0.0 20.0)
  end
  begin
     id 18 
     name lhumerus
     direction 1 -4.48973e-011 -1.90255e-027   
     length 5.20607   
     axis 180 -30 -90   XYZ
    dof rx ry rz
    limits (-60.0 90.0)
           (-90.0 90.0)
           (-90.0 90.0)
  end
  begin
     id 19
     name lradius
     direction 1 -4.48956e-011 9.87925e-027   
     length 3.39961   
     axis 180 -30 -90   XYZ
    dof rx
    limits (-10.0 170.0)
  end
  begin
     id 20
     name lwrist
     direction 1 -4.48985e-011 1.73247e-026   
     length 1.6998   
     axis -9.60847e-015 90 90   XYZ
    dof ry
    limits (-180.0 0.0)
 end
  begin
     id 21 
     name lhand
     direction 1 -4.48798e-011 3.46119e-026   
     length 0.519693   
     axis -2.21073e-014 90 90   XYZ
    dof rx rz
    limits (-90.0 90.0)
           (-45.0 45.0)
  end
  begin
     id 22 
     name lfingers
     direction 1 -4.48938e-011 6.92797e-026   
     length 0.41899   
     axis -4.42155e-014 90 90   XYZ
    dof rx
    limits (0.0 90.0)
  end
  begin
     id 23
     name lthumb
     direction 0.707107 -6.34952e-011 0.707107   
     length 0.601588   
     axis -90 45 6.0103e-014   XYZ
    dof rx rz
    limits (-45.0 45.0)
           (-45.0 45.0)
  end
  begin
     id 24 
     name rclavicle
     direction -0.866736 0.456792 -0.200276   
     length 3.45032  
     axis 0 0 0   XYZ 
    dof ry rz
    limits (-10.0 20.0)
           (-20.0 0.0)
  end
  begin
     id 25 
     name rhumerus
     direction -1 -4.4897e-011 8.65094e-028  
     length 5.32214   
     axis 180 30 90   XYZ
    dof rx ry rz
    limits (-90.0 60.0)
           (-90.0 90.0)
           (-90.0 90.0)
  end
  begin
     id 26 
     name rradius
     direction -1 -4.48987e-011 1.08427e-026   
     length 3.51208   
     axis 180 30 90   XYZ
    dof rx
    limits (-10.0 170.0)
  end
  begin
     id 27 
     name rwrist
     direction -1 -4.48961e-011 1.73222e-026   
     length 1.75604   
     axis -9.60847e-015 -90 -90   XYZ
    dof ry
    limits (-180.0 0.0)
  end
  begin
     id 28
     name rhand
     direction -1 -4.48895e-011 3.46314e-026   
     length 0.586681   
     axis -2.21073e-014 -90 -90   XYZ
    dof rx rz
    limits (-90.0 90.0)
           (-45.0 45.0)
  end
  begin
     id 29
     name rfingers
     direction -1 -4.48968e-011 6.92916e-026   
     length 0.472997   
     axis -4.42155e-014 -90 -90   XYZ
    dof rx
    limits (0.0 90.0)
  end
  begin
     id 30
     name rthumb
     direction -0.707107 -6.34848e-011 0.707107   
     length 0.679133   
     axis -90 -45 -6.0103e-014   XYZ
    dof rx rz
    limits (-45.0 45.0)
           (-45.0 45.0)
  end
:hierarchy
  begin
    root lhipjoint rhipjoint lowerback
    lhipjoint lfemur
    lfemur ltibia
    ltibia lfoot
    lfoot ltoes
    rhipjoint rfemur
    rfemur rtibia
    rtibia rfoot
    rfoot rtoes
    lowerback upperback
    upperback thorax
    thorax lowerneck lclavicle rclavicle
    lowerneck upperneck
    upperneck head
    lclavicle lhumerus
    lhumerus lradius
    lradius lwrist
    lwrist lhand lthumb
    lhand lfingers
    rclavicle rhumerus
    rhumerus rradius
    rradius rwrist
    rwrist rhand rthumb
    rhand rfingers
  end

#!OML:ASF H:\Dans Jumps\Project 1\Capture day 1\Session 1\subject.ASF
:FULLY-SPECIFIED
:DEGREES
22
root 0.567207 17.5474 -14.1134 5.88399 -0.38983 -0.823054
lowerback -1.03838 -0.834764 -0.696267
upperback 4.02919 -1.15235 1.47309
thorax 4.78383 -0.631676 1.85273
lowerneck -13.0363 0.583739 -1.96238
upperneck 33.2462 1.06644 0.915423
head 13.3259 0.333026 0.86243
rclavicle 1.44616e-014 -3.57812e-015
rhumerus -25.23 -15.0232 -80.2213
rradius 24.9523
rwrist 31.2544
rhand -18.4703 -26.2455
rfingers 7.12502
rthumb 7.81644 -56.081
lclavicle 1.44616e-014 -3.57812e-015
lhumerus -20.182 3.59325 86.2171
lradius 18.1509
lwrist 1.53229
lhand -25.6332 -3.43214
lfingers 7.12502
lthumb 0.899973 26.5457
rfemur -14.7152 -2.65155 19.2192
rtibia 24.2781
rfoot -13.9607 -1.77555
rtoes 11.7314
lfemur -13.022 7.04255 -19.679
ltibia 20.9088
lfoot -11.9458 3.75674
ltoes 6.07307
23
root 0.560574 17.5487 -14.1147 5.90705 -0.295506 -0.838533
lowerback -1.01563 -0.847368 -0.664081
upperback 4.02724 -1.17072 1.4851
thorax 4.76912 -0.639721 1.84645
lowerneck -13.0325 0.578488 -1.97135
upperneck 33.2537 1.06189 0.914952
head 13.3284 0.330001 0.863243
rclavicle -1.94312e-014 1.59028e-015
rhumerus -25.1773 -15.0128 -80.143
rradius 24.9512
rwrist 31.2502
rhand -18.4778 -26.2655
rfingers 7.12502
rthumb 7.80919 -56.1013
lclavicle -1.94312e-014 1.59028e-015
lhumerus -20.1574 3.53141 86.3692
lradius 18.1676
lwrist 1.58281
lhand -25.6349 -3.55263
lfingers 7.12502
lthumb 0.898393 26.4252
rfemur -14.7043 -2.71361 19.265
rtibia 24.2243
rfoot -13.9476 -1.79181
rtoes 11.7826
lfemur -13.0633 7.01509 -19.6411
ltibia 20.9031
lfoot -11.9273 3.72835
ltoes 5.98971
24
root 0.554217 17.5501 -14.116 5.93009 -0.204059 -0.852888
lowerback -0.9968 -0.85908 -0.632567
upperback 4.02657 -1.1878 1.49538
thorax 4.7579 -0.647145 1.83878
lowerneck -13.0301 0.568334 -1.97405
upperneck 33.2593 1.05101 0.906751
head 13.3306 0.323983 0.858961
rclavicle 1.57537e-014 -1.98785e-014
rhumerus -25.1244 -15.0012 -80.0694
rradius 24.9564
rwrist 31.2275
rhand -18.4809 -26.2931
rfingers 7.12502
rthumb 7.80619 -56.129
lclavicle 1.57537e-014 -1.98785e-014
lhumerus -20.1334 3.46735 86.5182
lradius 18.1871
lwrist 1.6313
lhand -25.654 -3.67788
lfingers 7.12502
lthumb 0.87995 26.3001
rfemur -14.6945 -2.77191 19.3089
rtibia 24.1728
rfoot -13.936 -1.81041
rtoes 11.8374
lfemur -13.1022 6.98247 -19.6052
ltibia 20.8939
lfoot -11.9065 3.70735
ltoes 5.90528
25
root 0.54816 17.5515 -14.1171 5.95249 -0.114157 -0.864498
lowerback -0.980754 -0.870237 -0.602734
upperback 4.02664 -1.20398 1.50312
thorax 4.74896 -0.654147 1.82944
lowerneck -13.0238 0.556001 -1.97276
upperneck 33.2614 1.03654 0.896038
head 13.3305 0.316597 0.852391
rclavicle -5.06901e-015 8.54774e-015
rhumerus -25.0699 -14.9953 -79.9998
rradius 24.9622
rwrist 31.1974
rhand -18.4904 -26.3114
rfingers 7.12502
rthumb 7.79706 -56.1476
lclavicle -5.06901e-015 8.54774e-015
lhumerus -20.114 3.39805 86.6632
lradius 18.2141
lwrist 1.6762
lhand -25.6775 -3.76998
lfingers 7.12502
lthumb 0.857181 26.208
rfemur -14.6846 -2.82698 19.3485
rtibia 24.1241
rfoot -13.9261 -1.83161
rtoes 11.8964
lfemur -13.1379 6.94712 -19.5735
ltibia 20.8815
lfoot -11.8837 3.69176
ltoes 5.81213
26
root 0.542452 17.5528 -14.118 5.97325 -0.0277049 -0.873351
lowerback -0.968459 -0.880127 -0.573455
upperback 4.02838 -1.21833 1.50769
thorax 4.74376 -0.660223 1.81715
lowerneck -13.0236 0.541907 -1.96506
upperneck 33.2659 1.01909 0.881687
head 13.333 0.308198 0.842889
rclavicle 1.78906e-015 -1.0138e-014
rhumerus -25.0151 -14.9981 -79.9339
rradius 24.9682
rwrist 31.1726
rhand -18.504 -26.3178
rfingers 7.12502
rthumb 7.78387 -56.1545
lclavicle 1.78906e-015 -1.0138e-014
lhumerus -20.0961 3.29586 86.8092
lradius 18.2476
lwrist 1.74628
lhand -25.7191 -3.86483
lfingers 7.12502
lthumb 0.817076 26.1133
rfemur -14.6731 -2.87966 19.3833
rtibia 24.0778
rfoot -13.9169 -1.85187
rtoes 11.9549
lfemur -13.1696 6.90781 -19.5457
ltibia 20.8683
lfoot -11.8602 3.68377
ltoes 5.72671
27
root 0.537014 17.5541 -14.1189 5.99353 0.0511105 -0.883598
lowerback -0.957844 -0.887442 -0.542285
upperback 4.02845 -1.22923 1.51096
thorax 4.73755 -0.664471 1.80264
lowerneck -13.0226 0.529298 -1.95838
upperneck 33.2749 1.00249 0.872089
head 13.3371 0.300625 0.835598
rclavicle -1.18774e-014 -2.38542e-015
rhumerus -24.9661 -15.0113 -79.8677
rradius 24.9714
rwrist 31.163
rhand -18.5308 -26.3042
rfingers 7.12502
rthumb 7.75799 -56.1419
lclavicle -1.18774e-014 -2.38542e-015
lhumerus -20.0875 3.17019 86.9538
lradius 18.2983
lwrist 1.83509
lhand -25.7446 -3.89924
lfingers 7.12502
lthumb 0.792407 26.079
rfemur -14.6626 -2.92441 19.418
rtibia 24.0333
rfoot -13.9071 -1.87137
rtoes 12.0162
lfemur -13.2001 6.8704 -19.5176
ltibia 20.8567
lfoot -11.8374 3.68238
ltoes 5.63534
28
root 0.531771 17.5553 -14.1196 6.01417 0.121333 -0.89834
lowerback -0.94893 -0.892042 -0.50788
upperback 4.02766 -1.23664 1.51493
thorax 4.73122 -0.666867 1.7872
lowerneck -13.0231 0.519222 -1.95396
upperneck 33.2869 0.989049 0.866191
head 13.3427 0.294606 0.830668
rclavicle 6.01324e-015 -1.64991e-014
rhumerus -24.918 -15.0336 -79.8018
rradius 24.971
rwrist 31.1688
rhand -18.5662 -26.2797
rfingers 7.12502
rthumb 7.7239 -56.1187
lclavicle 6.01324e-015 -1.64991e-014
lhumerus -20.0812 3.01858 87.0981
lradius 18.3551
lwrist 1.94182
lhand -25.7546 -3.91683
lfingers 7.12502
lthumb 0.782728 26.0615
rfemur -14.6547 -2.95751 19.4563
rtibia 23.9905
rfoot -13.8958 -1.89374
rtoes 12.0713
lfemur -13.2323 6.83531 -19.4851
ltibia 20.8498
lfoot -11.8171 3.68683
ltoes 5.55042
